# xmcd
#
# Track frame offsets: 
#        150
#        25392
#        48070
#        78942
#        108355
#        132197
#        157012
#        173587
#        204805
#        224515
#        263085
#
# Disc length: 3752 seconds
#
# Revision: 0
# Processed by: cddbd v1.5PL3 Copyright (c) Steve Scherf et al.
# Submitted via: ExactAudioCopy v0.95a4
#
DISCID=890ea60b
DTITLE=Donnie Dean and DIana Lee - Gimmick Free
DYEAR=1994
DGENRE=Blues
TTITLE0=Gimmick Free
TTITLE1=Where U Been
TTITLE2=Caribbean Lane
TTITLE3=Olivia
TTITLE4=Blue Light On
TTITLE5=Kool
TTITLE6=Your Love Lifted Me
TTITLE7=The Need to Be
TTITLE8=Another Day in Arizona
TTITLE9=Valeries' Theme
TTITLE10=I'll Be There
EXTD=
EXTT0=
EXTT1=
EXTT2=
EXTT3=
EXTT4=
EXTT5=
EXTT6=
EXTT7=
EXTT8=
EXTT9=
EXTT10=
PLAYORDER=
